<svg id="Layer_35" enable-background="new 0 0 64 64" height="512" viewBox="0 0 64 64" width="512" xmlns="http://www.w3.org/2000/svg"><path d="m44 4v12c0 1.1-.9 2-2 2h-2-4-18-4-2c-1.1 0-2-.9-2-2v-12c0-1.1.9-2 2-2h30c1.1 0 2 .9 2 2z" fill="#fcd770"/><path d="m14 26v-8h4v8h-2.34c-.56 0-1.11.03-1.65.1z" fill="#b27946"/><path d="m40 26-.01.05c-.32-.03-.64-.05-.96-.05h-3.03v-8h4z" fill="#b27946"/><path d="m55.46 39.86c1.74.44 3.14 1.61 3.9 3.14h-.01-3.35c-2.21 0-4 1.79-4 4h8v7h-4.35c-.81-2.33-3.04-4-5.65-4-1.1 0-2.12.29-3 .8v-11.8l-3.57-6.43c-.88-1.59-2.56-2.57-4.37-2.57h-7.06-15.94c-5.16 0-9.49 3.88-10.06 9l4 4v11h-4c-1.67-1.67-2.86-3.72-3.49-5.96h.01 1.48c1.1 0 2-.89 2-2v-2.04c0-1.1-.9-2-2-2h-2v-2.34c0-6.99 5.24-12.75 12.01-13.56.54-.07 1.09-.1 1.65-.1h2.34 18 3.03c.32 0 .64.02.96.05 3.3.31 6.25 2.25 7.84 5.21l4.17 7.74z" fill="#ff826e"/><path d="m32 39h-26l4 4v11h.35c.81-2.33 3.04-4 5.65-4s4.84 1.67 5.65 4h10.35 12.35c.47-1.35 1.42-2.48 2.65-3.2v-11.8z" fill="#fc6e51"/><path d="m6 46.04c0 1.11-.9 2-2 2h-1.48-.01c-.34-1.19-.51-2.44-.51-3.7v-2.34h2c1.1 0 2 .9 2 2z" fill="#fcd770"/><path d="m60 45.68v1.32h-8c0-2.21 1.79-4 4-4h3.35.01c.41.81.64 1.72.64 2.68z" fill="#fcd770"/><g fill="#ccd1d9"><path d="m10 56c0 .7.12 1.37.35 2h-7.35c-.55 0-1-.45-1-1v-2c0-.55.45-1 1-1h3 4 .35c-.23.63-.35 1.3-.35 2z"/><path d="m44 56c0 .7.12 1.37.35 2h-22.7c.23-.63.35-1.3.35-2s-.12-1.37-.35-2h10.35 12.35c-.23.63-.35 1.3-.35 2z"/><path d="m62 55v2c0 .55-.45 1-1 1h-5.35c.23-.63.35-1.3.35-2s-.12-1.37-.35-2h4.35 1c.55 0 1 .45 1 1z"/></g><path d="m21.65 54c.23.63.35 1.3.35 2s-.12 1.37-.35 2c-.81 2.33-3.04 4-5.65 4s-4.84-1.67-5.65-4c-.23-.63-.35-1.3-.35-2s.12-1.37.35-2c.81-2.33 3.04-4 5.65-4s4.84 1.67 5.65 4z" fill="#838f9b"/><path d="m55.65 54c.23.63.35 1.3.35 2s-.12 1.37-.35 2c-.81 2.33-3.04 4-5.65 4s-4.84-1.67-5.65-4c-.23-.63-.35-1.3-.35-2s.12-1.37.35-2c.47-1.35 1.42-2.48 2.65-3.2.88-.51 1.9-.8 3-.8 2.61 0 4.84 1.67 5.65 4z" fill="#838f9b"/><circle cx="16" cy="56" fill="#e6e9ed" r="2"/><circle cx="50" cy="56" fill="#e6e9ed" r="2"/><path d="m32 30v9h-26c.57-5.12 4.9-9 10.06-9z" fill="#69d6f4"/><path d="m43.43 32.57 3.57 6.43h-15v-9h7.06c1.81 0 3.49.98 4.37 2.57z" fill="#69d6f4"/><path d="m50 53c-1.654 0-3 1.346-3 3s1.346 3 3 3 3-1.346 3-3-1.346-3-3-3zm0 4c-.552 0-1-.449-1-1s.448-1 1-1 1 .449 1 1-.448 1-1 1z"/><path d="m16 53c-1.654 0-3 1.346-3 3s1.346 3 3 3 3-1.346 3-3-1.346-3-3-3zm0 4c-.552 0-1-.449-1-1s.448-1 1-1 1 .449 1 1-.448 1-1 1z"/><path d="m61 53v-7.315c0-3.218-2.181-6.01-5.303-6.791l-3.026-.756-3.958-7.353c-1.604-2.978-4.459-4.993-7.713-5.585v-6.2h1c1.654 0 3-1.346 3-3v-12c0-1.654-1.346-3-3-3h-30c-1.654 0-3 1.346-3 3v12c0 1.654 1.346 3 3 3h1v6.253c-6.816 1.255-12 7.23-12 14.403v4.687c0 3.161 1.008 6.159 2.847 8.657h-.847c-1.103 0-2 .897-2 2v2c0 1.103.897 2 2 2h6.685c1.126 2.361 3.53 4 6.315 4s5.188-1.639 6.315-4h21.37c1.126 2.361 3.53 4 6.315 4s5.188-1.639 6.315-4h4.685c1.103 0 2-.897 2-2v-2c0-1.103-.897-2-2-2zm-2.294-9c.189.529.294 1.096.294 1.685v.315h-5.829c.413-1.164 1.525-2 2.829-2zm-19.706-19h-2v-6h2zm-4-6v6h-16v-6zm-24-3v-12c0-.551.448-1 1-1h30c.552 0 1 .449 1 1v12c0 .551-.448 1-1 1h-30c-.552 0-1-.449-1-1zm4 3h2v6h-1.343c-.222 0-.438.023-.657.033zm-12 25.343v-1.343h1c.552 0 1 .449 1 1v2.042c0 .551-.448 1-1 1h-.704c-.19-.877-.296-1.779-.296-2.699zm.904 4.699h.096c1.654 0 3-1.346 3-3v-2.042c0-1.654-1.346-3-3-3h-1v-1.343c0-6.979 5.678-12.657 12.657-12.657h23.37c3.315 0 6.353 1.813 7.924 4.733l4.378 8.13 3.884.971c.832.208 1.569.617 2.168 1.166h-1.381c-2.757 0-5 2.243-5 5v1h8v5h-2.685c-1.126-2.361-3.53-4-6.315-4-.695 0-1.366.105-2 .295v-10.554l-3.697-6.655c-1.058-1.903-3.068-3.086-5.245-3.086h-23.002c-5.673 0-10.423 4.251-11.05 9.89l-.053.478 4.047 4.046v9.586h-2.559c-1.099-1.168-1.956-2.505-2.537-3.958zm12.096-.042c-1.958 0-3.728.81-5 2.111v-8.525l-2.586-2.586h22.586v13h-8.685c-1.127-2.361-3.53-4-6.315-4zm23.058-18c1.452 0 2.792.789 3.497 2.058l2.745 4.942h-12.3v-7zm-8.058 7h-23.807c.965-4.059 4.592-7 8.863-7h14.944zm2 6h4v-2h-4v-2h13v10.264c-.991.693-1.79 1.636-2.315 2.736h-10.685zm-30 13v-2h6.08c-.047.328-.08.66-.08 1s.033.672.08 1zm13 4c-2.757 0-5-2.243-5-5s2.243-5 5-5 5 2.243 5 5-2.243 5-5 5zm6.92-4c.047-.328.08-.66.08-1s-.033-.672-.08-1h20.16c-.047.328-.08.66-.08 1s.033.672.08 1zm27.08 4c-2.757 0-5-2.243-5-5s2.243-5 5-5 5 2.243 5 5-2.243 5-5 5zm11-4h-4.08c.047-.328.08-.66.08-1s-.033-.672-.08-1h4.08z"/><path d="m13 43h4v2h-4z"/><path d="m16 5h-3v10h2v-4h1c.552 0 1 .449 1 1v3h2v-3c0-.771-.301-1.468-.78-2 .479-.532.78-1.229.78-2 0-1.654-1.346-3-3-3zm-1 4v-2h1c.552 0 1 .449 1 1s-.448 1-1 1z"/><path d="m21 15h4v-2h-2v-2h2v-2h-2v-2h2v-2h-4z"/><path d="m31 9.877-1.219-4.877h-2.781v10h2v-4.877l1.219 4.877h2.781v-10h-2z"/><path d="m35 7h2v8h2v-8h2v-2h-6z"/></svg>