<svg xmlns="http://www.w3.org/2000/svg" width="32" height="32" viewBox="0 0 32 32">
    <title>segmentation</title>
    <g fill="#ffffff">
        <path d="M31,7H28a1,1,0,0,1-1-1h0a1,1,0,0,1,1-1h3a1,1,0,0,1,1,1h0A1,1,0,0,1,31,7Z"></path>
        <path d="M24,6a1,1,0,0,1-1,1H1A1,1,0,0,1,0,6H0A1,1,0,0,1,1,5H23a1,1,0,0,1,1,1Z" fill="#ffffff"></path>
        <path d="M5,16a1,1,0,0,1-1,1H1a1,1,0,0,1-1-1H0a1,1,0,0,1,1-1H4a1,1,0,0,1,1,1Z"></path>
        <path d="M31,17H9a1,1,0,0,1-1-1H8a1,1,0,0,1,1-1H31a1,1,0,0,1,1,1h0A1,1,0,0,1,31,17Z" fill="#ffffff"></path>
        <path d="M31,27H28a1,1,0,0,1-1-1h0a1,1,0,0,1,1-1h3a1,1,0,0,1,1,1h0A1,1,0,0,1,31,27Z"></path>
        <path d="M24,26a1,1,0,0,1-1,1H1a1,1,0,0,1-1-1H0a1,1,0,0,1,1-1H23a1,1,0,0,1,1,1Z" fill="#ffffff"></path>
    </g>
</svg>